<?xml version="1.0" encoding="UTF-8"?>
<!DOCTYPE svg PUBLIC "-//W3C//DTD SVG 1.1//EN" "http://www.w3.org/Graphics/SVG/1.1/DTD/svg11.dtd">
<!-- Creator: CorelDRAW 2019 (64-Bit) -->
<svg xmlns="http://www.w3.org/2000/svg" xml:space="preserve" width="24.2316mm" height="27.9803mm" version="1.1" style="shape-rendering:geometricPrecision; text-rendering:geometricPrecision; image-rendering:optimizeQuality; fill-rule:evenodd; clip-rule:evenodd"
viewBox="0 0 198.31 228.99"
 xmlns:xlink="http://www.w3.org/1999/xlink"
 xmlns:xodm="http://www.corel.com/coreldraw/odm/2003">
 <defs>
  <style type="text/css">
   <![CDATA[
    .str0 {stroke:#1D58A5;stroke-width:6.14;stroke-miterlimit:22.9256}
    .str1 {stroke:#80CAEC;stroke-width:2.46;stroke-miterlimit:22.9256}
    .str2 {stroke:#1397E1;stroke-width:2.46;stroke-linecap:round;stroke-linejoin:round;stroke-miterlimit:22.9256}
    .fil4 {fill:none}
    .fil2 {fill:#1D58A5}
    .fil5 {fill:#27CBC0}
    .fil3 {fill:#80CAEC}
    .fil0 {fill:#DCE6F2}
    .fil6 {fill:#F6AB36}
    .fil7 {fill:#FF6C5C}
    .fil1 {fill:url(#id0)}
   ]]>
  </style>
  <linearGradient id="id0" gradientUnits="userSpaceOnUse" x1="40.67" y1="26.64" x2="182.5" y2="186.87">
   <stop offset="0" style="stop-opacity:1; stop-color:#8D9AAA"/>
   <stop offset="0.478431" style="stop-opacity:1; stop-color:#B4C0CE"/>
   <stop offset="1" style="stop-opacity:1; stop-color:#DCE6F2"/>
  </linearGradient>
 </defs>
 <g id="Слой_x0020_1">
  <metadata id="CorelCorpID_0Corel-Layer"/>
  <polygon class="fil0 str0" points="195.24,169.96 195.24,59.03 99.15,3.54 3.07,59.03 3.07,169.96 99.15,225.44 "/>
  <polygon class="fil1" points="35.14,152.2 29.57,157.56 86.75,214.75 99.14,221.91 192.17,168.18 192.17,94.87 168.94,71.62 161.69,78.23 102.15,41.57 38.48,76.62 35.89,90.95 "/>
  <polygon class="fil2 str1" points="160.08,149.66 160.08,79.32 99.15,44.14 38.23,79.32 38.23,149.66 99.15,184.84 "/>
  <path class="fil2" d="M99.81 40.22l31.67 18.28 31.68 18.29c0.41,0.24 0.64,0.67 0.64,1.11l0.01 0 0 36.59 0 36.59c0,0.52 -0.31,0.97 -0.75,1.17l-31.58 18.23 -31.68 18.29c-0.42,0.24 -0.91,0.22 -1.3,-0.01l-31.67 -18.28 -31.68 -18.29c-0.41,-0.24 -0.64,-0.67 -0.64,-1.12l-0 0 0 -36.59 0 -36.59c0,-0.52 0.31,-0.97 0.75,-1.17l31.58 -18.23 31.68 -18.29c0.42,-0.24 0.91,-0.22 1.3,0.01zm30.39 20.51l-31.04 -17.92 -31.05 17.92 -31.03 17.92 0 35.85 0 35.85 31.03 17.92 31.04 17.92 31.04 -17.92 31.03 -17.92 0 -35.85 0 -35.85 -31.03 -17.92z"/>
  <g id="_1480217076352">
   <path class="fil3" d="M51.25 145.13l-2.98 -5.03 4.71 -2.78 2.98 5.04 -4.71 2.78zm9.41 -5.56l-2.98 -5.04 4.71 -2.78 2.97 5.04 -4.71 2.78zm9.41 -5.56l-2.98 -5.03 4.71 -2.78 2.97 5.03 -4.7 2.79zm9.41 -5.56l-2.98 -5.03 4.7 -2.8 2.97 5.04 -4.7 2.8zm9.41 -5.56l-2.97 -5.05 4.71 -2.78 2.98 5.04 -4.71 2.8z"/>
   <path class="fil3" d="M147.43 145.13l-4.71 -2.78 2.98 -5.03 4.7 2.78 -2.97 5.04zm-9.41 -5.56l-4.71 -2.78 2.97 -5.05 4.71 2.78 -2.98 5.05zm-9.41 -5.56l-4.71 -2.78 2.98 -5.05 4.7 2.78 -2.97 5.05zm-9.41 -5.56l-4.71 -2.78 2.99 -5.05 4.71 2.78 -2.99 5.05zm-9.41 -5.56l-4.71 -2.78 2.98 -5.05 4.7 2.78 -2.97 5.05z"/>
   <polygon class="fil3" points="96.42,98.7 102.27,98.7 102.27,104.55 96.42,104.55 "/>
   <polygon class="fil3" points="96.42,87 102.27,87 102.27,92.85 96.42,92.85 "/>
   <polygon class="fil3" points="96.42,75.3 102.27,75.3 102.27,81.15 96.42,81.15 "/>
   <polygon class="fil3" points="96.42,63.6 102.27,63.6 102.27,69.45 96.42,69.45 "/>
   <polygon class="fil3" points="96.42,51.9 102.27,51.9 102.27,57.75 96.42,57.75 "/>
   <polygon class="fil3" points="41.84,150.71 38.86,145.68 43.57,142.9 46.55,147.94 "/>
   <polygon class="fil3" points="156.83,150.7 152.12,147.92 155.1,142.89 159.81,145.67 "/>
  </g>
  <polygon class="fil4 str2" points="123.72,76.31 74.01,74.02 145.66,141.37 "/>
  <polyline class="fil4 str2" points="74.01,74.02 82.11,155.01 123.72,76.31 48.43,118.54 82.11,155.01 145.66,141.37 "/>
  <circle class="fil5" transform="matrix(0.0521095 0.0467371 -0.0467371 0.0521095 123.24 76.3316)" r="82.54"/>
  <circle class="fil6" transform="matrix(0.0521114 0.0467388 -0.0467387 0.0521114 82.1098 155.014)" r="82.54"/>
  <circle class="fil6" transform="matrix(0.0521104 0.0467379 -0.0467379 0.0521104 74.0101 74.0238)" r="82.54"/>
  <circle class="fil7" transform="matrix(0.0521104 0.0467379 -0.0467379 0.0521104 48.4256 118.538)" r="82.54"/>
  <polygon class="fil3" points="164.42,79.41 161.44,74.38 98.58,111.52 35.72,74.38 32.75,79.41 95.66,116.59 95.66,186.79 101.51,186.79 101.51,116.59 "/>
  <circle class="fil6" cx="35.78" cy="77.91" r="8.98"/>
  <circle class="fil7" cx="162.53" cy="77.91" r="8.98"/>
  <circle class="fil5" cx="98.58" cy="188.89" r="8.98"/>
  <circle class="fil6" cx="99.15" cy="114.49" r="8.98"/>
  <circle class="fil6" cx="162.53" cy="151.08" r="8.98"/>
  <circle class="fil7" cx="35.78" cy="151.08" r="8.98"/>
  <circle class="fil5" cx="99.15" cy="44.14" r="8.98"/>
  <circle class="fil7" transform="matrix(0.0521095 0.0467379 -0.0467371 0.0521104 145.664 141.372)" r="82.54"/>
 </g>
</svg>
