<?xml version="1.0" encoding="UTF-8"?>
<!DOCTYPE svg PUBLIC "-//W3C//DTD SVG 1.1//EN" "http://www.w3.org/Graphics/SVG/1.1/DTD/svg11.dtd">
<!-- Creator: CorelDRAW 2019 (64-Bit) -->
<svg xmlns="http://www.w3.org/2000/svg" xml:space="preserve" width="24.2316mm" height="27.9803mm" version="1.1" style="shape-rendering:geometricPrecision; text-rendering:geometricPrecision; image-rendering:optimizeQuality; fill-rule:evenodd; clip-rule:evenodd"
viewBox="0 0 102.99 118.92"
 xmlns:xlink="http://www.w3.org/1999/xlink"
 xmlns:xodm="http://www.corel.com/coreldraw/odm/2003">
 <defs>
  <style type="text/css">
   <![CDATA[
    .str0 {stroke:#1D58A5;stroke-width:3.19;stroke-miterlimit:22.9256}
    .fil5 {fill:#D5D8D9}
    .fil0 {fill:#DCE6F2}
    .fil4 {fill:#E84850}
    .fil3 {fill:#ECF0F1}
    .fil7 {fill:#F6AB36}
    .fil6 {fill:#FAD24D}
    .fil2 {fill:#FF6C5C}
    .fil1 {fill:url(#id0)}
   ]]>
  </style>
  <linearGradient id="id0" gradientUnits="userSpaceOnUse" x1="15.72" y1="15.04" x2="89.94" y2="103.32">
   <stop offset="0" style="stop-opacity:1; stop-color:#8D9AAA"/>
   <stop offset="0.611765" style="stop-opacity:1; stop-color:#B4C0CE"/>
   <stop offset="1" style="stop-opacity:1; stop-color:#DCE6F2"/>
  </linearGradient>
 </defs>
 <g id="Слой_x0020_1">
  <metadata id="CorelCorpID_0Corel-Layer"/>
  <polygon class="fil0 str0" points="101.39,88.26 101.39,30.65 51.49,1.84 1.59,30.65 1.59,88.26 51.49,117.08 "/>
  <polygon class="fil1" points="24.94,84.14 76.76,34.24 99.8,57.24 99.79,87.37 54.37,113.58 "/>
  <g id="_1480218755376">
   <circle class="fil2" cx="51.11" cy="59.46" r="35.97"/>
   <circle class="fil3" transform="matrix(0.211505 -0.123378 0.123378 0.211505 51.1177 59.5254)" r="117.8"/>
   <circle class="fil2" transform="matrix(0.109669 -0.218848 0.218848 0.109669 51.1243 59.5172)" r="89.39"/>
   <circle class="fil3" cx="51.11" cy="59.46" r="14"/>
   <circle class="fil2" cx="51.11" cy="59.46" r="7.12"/>
   <path class="fil4" d="M78.35 82.95l-5.06 -5.06c-0.56,0.67 -1.16,1.33 -1.79,1.96 -0.3,0.3 -0.6,0.59 -0.9,0.87l5.05 5.05c0.3,-0.28 0.6,-0.57 0.9,-0.87 0.63,-0.63 1.23,-1.28 1.81,-1.94l0 -0z"/>
   <path class="fil5" d="M73.29 77.89l-4.95 -4.95c-0.54,0.69 -1.13,1.35 -1.76,1.99 -0.3,0.3 -0.6,0.58 -0.91,0.86l4.92 4.92c0.31,-0.28 0.61,-0.57 0.9,-0.87 0.63,-0.63 1.23,-1.29 1.79,-1.96l0 0z"/>
   <path class="fil4" d="M68.34 72.95l-5.64 -5.64c-0.49,0.72 -1.06,1.41 -1.7,2.05 -0.3,0.3 -0.61,0.58 -0.92,0.85l5.59 5.59c0.31,-0.28 0.61,-0.56 0.91,-0.86 0.63,-0.63 1.22,-1.3 1.76,-1.99l0 0z"/>
   <path class="fil5" d="M62.7 67.31l-5.04 -5.04c-0.35,0.81 -0.85,1.57 -1.51,2.23 -0.3,0.3 -0.62,0.57 -0.96,0.81l4.9 4.9c0.32,-0.27 0.63,-0.55 0.92,-0.85 0.64,-0.64 1.21,-1.33 1.7,-2.05z"/>
   <path class="fil4" d="M55.18 65.31c0.34,-0.24 0.66,-0.51 0.96,-0.81 0.66,-0.66 1.17,-1.42 1.51,-2.23l-4.47 -4.47c-0.76,-0.76 -2,-0.76 -2.76,0 -0.76,0.76 -0.76,2 0,2.76l4.75 4.75z"/>
   <path class="fil6" d="M88.58 61.09l-36.9 0c-1.08,0 -1.95,-0.87 -1.95,-1.95 0,-1.08 0.87,-1.95 1.95,-1.95l36.9 0c1.08,0 1.95,0.87 1.95,1.95 0,1.08 -0.87,1.95 -1.95,1.95l0 0z"/>
   <path class="fil7" d="M88.57 59.14l-36.9 0c-0.72,0 -1.35,-0.39 -1.69,-0.98 -0.17,0.29 -0.26,0.62 -0.26,0.98 0,1.08 0.87,1.95 1.95,1.95l36.9 0c1.08,0 1.95,-0.87 1.95,-1.95 0,-0.36 -0.1,-0.69 -0.26,-0.98 -0.34,0.58 -0.97,0.98 -1.69,0.98z"/>
   <path class="fil6" d="M92.18 51.12l-8.68 0c-0.77,0 -1.51,0.29 -2.07,0.81l-5.71 5.26 12.48 0 4.67 -4.3c0.68,-0.63 0.24,-1.77 -0.69,-1.77l0 0z"/>
   <path class="fil7" d="M86.55 51.12l-3.05 0c-0.77,0 -1.51,0.29 -2.07,0.81l-5.71 5.26 3.05 0 5.71 -5.26c0.56,-0.52 1.3,-0.81 2.07,-0.81l0 0z"/>
   <path class="fil7" d="M92.32 51.13c-0.05,-0.01 -0.09,-0.01 -0.14,-0.01l-2.68 0c-0.77,0 -1.51,0.29 -2.07,0.81l-5.71 5.26 3.05 0 5.71 -5.26c0.51,-0.47 1.15,-0.75 1.84,-0.8l0 0z"/>
   <path class="fil6" d="M92.18 67.16l-8.68 0c-0.77,0 -1.51,-0.29 -2.07,-0.81l-5.71 -5.26 12.48 0 4.67 4.3c0.68,0.63 0.24,1.77 -0.69,1.77l0 0z"/>
   <g>
    <path class="fil7" d="M86.55 67.16l-3.05 0c-0.77,0 -1.51,-0.29 -2.07,-0.81l-5.71 -5.26 3.05 0 5.71 5.26c0.56,0.52 1.3,0.81 2.07,0.81l0 0z"/>
    <path class="fil7" d="M90.49 66.35l-5.71 -5.26 -3.05 0 5.71 5.26c0.56,0.52 1.3,0.81 2.07,0.81l2.68 0c0.05,0 0.09,-0 0.14,-0.01 -0.68,-0.05 -1.33,-0.33 -1.84,-0.8l0 0z"/>
   </g>
  </g>
 </g>
</svg>
