<?xml version="1.0" encoding="UTF-8"?>
<!DOCTYPE svg PUBLIC "-//W3C//DTD SVG 1.1//EN" "http://www.w3.org/Graphics/SVG/1.1/DTD/svg11.dtd">
<!-- Creator: CorelDRAW 2019 (64-Bit) -->
<svg xmlns="http://www.w3.org/2000/svg" xml:space="preserve" width="24.229mm" height="27.9773mm" version="1.1" style="shape-rendering:geometricPrecision; text-rendering:geometricPrecision; image-rendering:optimizeQuality; fill-rule:evenodd; clip-rule:evenodd"
viewBox="0 0 135.41 156.36"
 xmlns:xlink="http://www.w3.org/1999/xlink"
 xmlns:xodm="http://www.corel.com/coreldraw/odm/2003">
 <defs>
  <style type="text/css">
   <![CDATA[
    .str0 {stroke:#1D58A5;stroke-width:4.19;stroke-miterlimit:22.9256}
    .str1 {stroke:#F6AB36;stroke-width:1.12;stroke-miterlimit:22.9256}
    .str2 {stroke:#E59D1F;stroke-width:0.56;stroke-linecap:round;stroke-linejoin:round;stroke-miterlimit:22.9256}
    .fil3 {fill:#5D6A7A}
    .fil2 {fill:#7D8A9A}
    .fil10 {fill:#ADBACA}
    .fil11 {fill:#BDCADA}
    .fil8 {fill:#C6D3E3}
    .fil9 {fill:#E4EAF8}
    .fil7 {fill:#E59D1F}
    .fil0 {fill:#ECF0F1}
    .fil6 {fill:#F4B537}
    .fil5 {fill:#F6AB36}
    .fil4 {fill:#FECA57}
    .fil12 {fill:white}
    .fil1 {fill:url(#id0)}
   ]]>
  </style>
  <linearGradient id="id0" gradientUnits="userSpaceOnUse" x1="17.47" y1="39.84" x2="126.89" y2="105.93">
   <stop offset="0" style="stop-opacity:1; stop-color:#BEC3C7"/>
   <stop offset="0.478431" style="stop-opacity:1; stop-color:#CDD4DC"/>
   <stop offset="1" style="stop-opacity:1; stop-color:#DCE6F2"/>
  </linearGradient>
 </defs>
 <g id="Слой_x0020_1">
  <metadata id="CorelCorpID_0Corel-Layer"/>
  <g id="_1480219079856">
   <polygon class="fil0 str0" points="133.31,116.05 133.31,40.3 67.7,2.42 2.1,40.3 2.1,116.05 67.7,153.94 "/>
   <polygon class="fil1" points="68.87,92.36 92.85,37.66 131.23,75.99 131.21,114.84 77.25,146.01 59.6,128.36 "/>
   <g>
    <path class="fil2" d="M58.55 121.04l0 5.03c0,1.66 1.35,3.03 3,3.03l12.07 0c1.65,0 3,-1.36 3,-3.03l0 -5.03 -18.08 0z"/>
    <path class="fil3" d="M64.87 126.07l0 -5.03 -6.32 0 0 5.03c0,1.66 1.35,3.03 3,3.03l6.32 0c-1.65,0 -3,-1.36 -3,-3.03z"/>
    <path class="fil4 str1" d="M67.12 27.52c19.18,-0.26 34.78,14.97 34.96,34.15 0.09,9.7 -3.82,18.49 -10.19,24.81 -3.48,3.46 -6.06,7.72 -7.64,12.37l-2.87 8.44c-0.16,-0.03 -0.32,-0.04 -0.48,-0.04l-26.61 0c-0.16,0 -0.32,0.02 -0.48,0.04l-2.87 -8.44c-1.59,-4.67 -4.19,-8.93 -7.69,-12.41 -6.27,-6.24 -10.15,-14.88 -10.15,-24.43 0,-18.89 15.18,-34.23 34.01,-34.48z"/>
    <path class="fil5" d="M78.17 99.05c1.59,-4.68 4.18,-8.97 7.69,-12.45 6.41,-6.36 10.35,-15.21 10.26,-24.97 -0.17,-18.09 -13.98,-32.69 -31.6,-34.24 0.86,-0.08 1.72,-0.12 2.6,-0.13 19.3,-0.26 35,15.06 35.19,34.37 0.09,9.77 -3.85,18.61 -10.26,24.97 -3.51,3.48 -6.1,7.77 -7.69,12.45l-2.88 8.49c-0.16,-0.03 -0.32,-0.04 -0.49,-0.04l-5.68 0 2.87 -8.45z"/>
    <path class="fil6" d="M80.98 106.94c0.17,0 0.33,0.02 0.49,0.04l0.01 -0.04 -0.5 0z"/>
    <path class="fil7" d="M73.91 103.24l-12.64 0c-1.5,0 -2.72,1.23 -2.72,2.72l0 0.97 18.08 0 0 -0.97c0,-1.5 -1.23,-2.72 -2.72,-2.72z"/>
    <path class="fil8" d="M80.98 106.78l-26.78 0c-1.65,0 -3,1.36 -3,3.03l0 1.39c0,1.66 1.35,3.03 3,3.03l26.78 0c1.65,0 3,-1.36 3,-3.03l0 -1.39c0,-1.66 -1.35,-3.03 -3,-3.03z"/>
    <path class="fil9" d="M80.98 114.17l-26.78 0c-1.65,0 -3,1.37 -3,3.04l0 1.39c0,1.67 1.35,3.04 3,3.04l26.78 0c1.65,0 3,-1.37 3,-3.04l0 -1.39c0,-1.67 -1.35,-3.04 -3,-3.04z"/>
    <path class="fil10" d="M80.98 110.1l-26.78 0c-1.16,0 -2.18,-0.68 -2.67,-1.66 -0.21,0.41 -0.33,0.88 -0.33,1.37l0 1.39c0,1.66 1.35,3.03 3,3.03l26.78 0c1.65,0 3,-1.36 3,-3.03l0 -1.39c0,-0.49 -0.12,-0.96 -0.33,-1.37 -0.5,0.98 -1.51,1.66 -2.67,1.66z"/>
    <path class="fil11" d="M80.98 117.53l-26.78 0c-1.17,0 -2.18,-0.69 -2.68,-1.68 -0.21,0.41 -0.32,0.87 -0.32,1.36l0 1.39c0,1.67 1.35,3.04 3,3.04l26.78 0c1.65,0 3,-1.37 3,-3.04l0 -1.39c0,-0.49 -0.12,-0.95 -0.32,-1.36 -0.5,0.99 -1.51,1.68 -2.68,1.68z"/>
    <g>
     <path class="fil7 str2" d="M57.22 58.34c0.88,0 1.6,0.92 1.6,1.6 0,0.68 -0.21,0.9 -0.54,1.2l5.34 15.43 0.04 0.1 0 0.09 0 26.47 -1.22 0 0 -26.38 -5.3 -15.32c-0.84,-0.05 -1.51,-0.73 -1.51,-1.6 0,-0.87 0.72,-1.6 1.6,-1.6l-0 0zm20.41 0c-0.88,0 -1.6,0.92 -1.6,1.6 0,0.68 0.21,0.9 0.54,1.2l-5.34 15.43 -0.04 0.1 0 0.09 0 26.47 1.22 0 0 -26.38 5.3 -15.32c0.84,-0.05 1.51,-0.73 1.51,-1.6 0,-0.87 -0.72,-1.6 -1.6,-1.6l0 0 0 0z"/>
    </g>
    <polygon class="fil12" points="68.87,55.11 67.05,57.45 79.49,56.46 64.1,60.39 64.83,57.56 57.2,57.8 68.86,55.12 68.86,55.11 "/>
   </g>
  </g>
 </g>
</svg>
