<?xml version="1.0" encoding="UTF-8"?>
<!DOCTYPE svg PUBLIC "-//W3C//DTD SVG 1.1//EN" "http://www.w3.org/Graphics/SVG/1.1/DTD/svg11.dtd">
<!-- Creator: CorelDRAW 2019 (64-Bit) -->
<svg xmlns="http://www.w3.org/2000/svg" xml:space="preserve" width="47mm" height="47mm" version="1.1" style="shape-rendering:geometricPrecision; text-rendering:geometricPrecision; image-rendering:optimizeQuality; fill-rule:evenodd; clip-rule:evenodd"
viewBox="0 0 4700 4700"
 xmlns:xlink="http://www.w3.org/1999/xlink"
 xmlns:xodm="http://www.corel.com/coreldraw/odm/2003">
 <defs>
  <style type="text/css">
   <![CDATA[
    .str0 {stroke:#2B2A29;stroke-width:48.82;stroke-miterlimit:10}
    .fil4 {fill:none;fill-rule:nonzero}
    .fil5 {fill:#2B2A29;fill-rule:nonzero}
    .fil2 {fill:#B0DFF8;fill-rule:nonzero}
    .fil3 {fill:#44C0F0;fill-rule:nonzero}
    .fil0 {fill:#00B6ED;fill-rule:nonzero}
    .fil1 {fill:#00A0E3;fill-rule:nonzero}
   ]]>
  </style>
 </defs>
 <g id="Слой_x0020_1">
  <metadata id="CorelCorpID_0Corel-Layer"/>
  <polygon class="fil0" points="3290.67,2354.33 3291.62,2353.77 3290.67,2353.2 "/>
  <polygon class="fil0" points="3290.67,2899.42 3291.62,2898.82 3290.67,2898.36 "/>
  <polygon class="fil0" points="1400.94,3444.06 1401.11,3444.23 1401.11,3443.88 "/>
  <polygon class="fil0" points="1400.94,2898.81 1401.11,2899.03 1401.11,2898.74 "/>
  <polygon class="fil0" points="3290.67,3444.6 3291.62,3444.07 3290.67,3443.5 "/>
  <polygon class="fil0" points="1400.94,3989.14 1401.11,3989.28 1401.11,3989.14 "/>
  <polygon class="fil0" points="1400.94,1808.58 1401.11,1808.76 1401.11,1808.48 "/>
  <polygon class="fil0" points="1400.94,2353.76 1401.11,2353.87 1401.11,2353.58 "/>
  <polygon class="fil1" points="1873.51,2081.11 1401.11,1808.77 1401.11,1808.48 1873.51,1536.03 2346.27,1808.59 "/>
  <polygon class="fil1" points="1873.51,1536.04 2346.27,1263.42 2346.27,1808.6 "/>
  <polygon class="fil1" points="2346.28,1808.59 2819.04,2081.11 2346.28,2353.77 "/>
  <polygon class="fil1" points="1401.12,2898.74 1401.12,2353.87 1873.53,2626.29 "/>
  <polygon class="fil1" points="2346.28,2898.82 1873.52,3171.41 1401.12,2899.03 1401.12,2898.75 1873.52,2626.3 "/>
  <polygon class="fil1" points="2819.05,3171.42 2346.29,3444.04 1873.5,3171.42 2346.29,2898.82 "/>
  <polygon class="fil1" points="3290.67,2354.57 3290.67,2898.58 2819.04,2626.52 "/>
  <polygon class="fil1" points="2346.28,718.33 2819.04,990.89 2346.28,1263.41 "/>
  <polygon class="fil1" points="2346.28,172.49 2346.28,172.49 2819.25,445.61 2346.28,718.35 "/>
  <polygon class="fil1" points="2346.28,718.33 2819.25,445.6 3291.62,718.33 2819.04,990.89 "/>
  <polygon class="fil2" points="3290.67,1809.15 3291.62,1808.59 3764.38,2081.11 3291.62,2353.77 3290.67,2353.17 "/>
  <polygon class="fil2" points="2346.28,1808.59 2346.28,1263.4 2819.04,1536.03 "/>
  <polygon class="fil2" points="3290.67,3443.49 2819.04,3171.43 3290.67,2899.4 "/>
  <polygon class="fil2" points="1401.12,3989.14 1401.12,3444.24 1873.53,3716.48 "/>
  <polygon class="fil2" points="1401.12,2353.56 1401.12,1808.77 1873.53,2081.11 "/>
  <polygon class="fil2" points="2346.28,2353.75 1873.52,2626.31 1401.12,2353.86 1401.12,2353.58 1873.52,2081.09 "/>
  <polygon class="fil2" points="1873.51,3171.42 2346.27,3444.04 1873.51,3716.49 1401.11,3444.25 1401.11,3443.87 "/>
  <polygon class="fil2" points="3290.67,1809.15 3290.67,2353.17 2819.04,2081.11 "/>
  <polygon class="fil2" points="2346.28,2353.75 2819.04,2081.09 3290.67,2353.19 3290.67,2354.32 2819.04,2626.31 "/>
  <polygon class="fil2" points="2346.28,2898.82 1873.52,2626.3 2346.28,2353.74 2346.28,2355.08 2346.28,2353.74 2819.04,2626.3 "/>
  <polygon class="fil2" points="457.3,3442.91 457.3,2899.98 928.16,3171.41 "/>
  <polygon class="fil2" points="1401.12,3444.25 1401.12,3989.15 1400.94,3989.15 928.54,3716.27 1400.94,3444.04 "/>
  <polygon class="fil2" points="3290.67,3988.55 2819.04,3716.49 3290.67,3444.61 "/>
  <polygon class="fil2" points="1401.12,2898.74 1400.94,2898.81 928.15,2626.29 1400.94,2353.76 1401.12,2353.87 "/>
  <polygon class="fil2" points="457.3,2352.6 457.3,1809.64 928.16,2081.1 "/>
  <polygon class="fil2" points="1400.93,2898.82 928.17,3171.41 457.29,2899.98 457.29,2897.76 928.17,2626.3 "/>
  <polygon class="fil2" points="457.3,2897.77 457.3,2354.81 928.16,2626.31 "/>
  <polygon class="fil2" points="1400.93,2353.75 928.17,2626.31 457.29,2354.81 457.29,2352.59 928.17,2081.09 "/>
  <polygon class="fil2" points="1400.93,1808.59 928.17,2081.11 457.29,1809.64 457.29,1807.53 928.17,1536.03 "/>
  <polygon class="fil2" points="457.3,1807.53 457.3,1264.54 928.16,1536.04 "/>
  <polygon class="fil2" points="1401.12,2353.56 1400.94,2353.74 928.15,2081.11 1400.94,1808.59 1401.12,1808.77 "/>
  <polygon class="fil2" points="4235.25,1809.64 4235.25,2352.6 3764.39,2081.1 "/>
  <polygon class="fil2" points="3290.67,2354.32 3291.62,2353.76 3764.38,2626.28 3291.62,2898.83 3290.67,2898.34 "/>
  <polygon class="fil2" points="3290.67,2899.41 3291.62,2898.81 3764.38,3171.4 3291.62,3444.02 3290.67,3443.5 "/>
  <polygon class="fil2" points="3290.67,3444.61 3291.62,3444.05 3764.03,3716.28 3291.62,3989.16 3290.67,3988.56 "/>
  <polygon class="fil2" points="3291.61,2353.75 3764.37,2081.09 4235.26,2352.59 4235.26,2354.81 3764.37,2626.31 "/>
  <polygon class="fil2" points="4235.25,2354.81 4235.25,2897.77 3764.39,2626.3 "/>
  <polygon class="fil2" points="3291.61,2898.82 3764.37,2626.3 4235.26,2897.76 4235.26,2899.98 3764.37,3171.41 "/>
  <polygon class="fil2" points="4235.25,1264.55 4235.25,1807.55 3764.39,1536.05 "/>
  <polygon class="fil2" points="3291.61,1808.59 3764.37,1536.03 4235.26,1807.53 4235.26,1809.64 3764.37,2081.11 "/>
  <polygon class="fil3" points="1401.12,3443.85 1400.94,3444.03 928.15,3171.4 1400.94,2898.81 1401.12,2899.02 "/>
  <polygon class="fil3" points="3290.67,1808.1 3290.67,1809.16 2819.04,2081.12 2346.28,1808.6 2819.04,1536.04 3291.62,1808.6 3290.67,1809.16 "/>
  <polygon class="fil3" points="1873.51,2081.11 2346.27,1808.59 2346.27,2353.77 "/>
  <polygon class="fil3" points="1401.12,3443.85 1401.12,2899.02 1873.53,3171.4 "/>
  <polygon class="fil3" points="2819.05,2626.3 3290.68,2898.36 3290.68,2899.42 2819.05,3171.41 2346.29,2898.82 "/>
  <polygon class="fil3" points="2819.24,4261.94 2346.27,4534.96 1873.34,4261.77 2346.27,3989.14 "/>
  <polygon class="fil3" points="1873.51,3716.48 2346.27,3989.14 1873.34,4261.77 1401.11,3989.32 1401.11,3989.14 "/>
  <polygon class="fil3" points="1400.93,3444.04 928.56,3716.28 457.29,3444.25 457.29,3442.91 928.17,3171.42 "/>
  <polygon class="fil3" points="2819.05,3171.42 3290.68,3443.48 3290.68,3444.61 2819.05,3716.49 2346.29,3444.04 "/>
  <polygon class="fil3" points="2819.05,3716.48 2346.29,3989.14 1873.5,3716.48 2346.29,3444.03 "/>
  <polygon class="fil3" points="2819.05,3716.48 3290.68,3988.54 3290.68,3989.49 3290.68,3988.54 3291.63,3989.14 2819.23,4261.94 2346.29,3989.14 "/>
  <polygon class="fil3" points="928.16,1536.04 457.31,1264.55 457.31,1263.24 928.55,991.07 1400.92,1263.42 "/>
  <polygon class="fil3" points="1873.51,990.87 1400.93,1263.43 928.56,991.05 1400.93,718.42 "/>
  <polygon class="fil3" points="1873.51,1536.04 1400.93,1263.42 1873.51,990.86 2346.27,1263.42 "/>
  <polygon class="fil3" points="2346.28,1263.42 1873.52,990.86 2346.28,718.34 "/>
  <polygon class="fil3" points="1873.51,990.87 1400.93,718.42 1873.34,445.59 2346.27,718.32 "/>
  <polygon class="fil3" points="1873.32,445.6 2346.29,172.48 2346.29,718.34 "/>
  <polygon class="fil3" points="1401.12,1808.5 1401.12,1807.44 1401.12,1808.5 1400.94,1808.57 928.15,1536.05 1400.94,1263.42 1873.53,1536.05 "/>
  <polygon class="fil3" points="3764.39,3171.42 4235.24,3442.91 4235.24,3444.25 3764.03,3716.28 3291.63,3444.04 "/>
  <polygon class="fil3" points="4235.25,2899.97 4235.25,3442.9 3764.39,3171.4 "/>
  <polygon class="fil3" points="3291.61,1263.42 3764.37,1536.04 3291.61,1808.6 2819.03,1536.04 "/>
  <polygon class="fil3" points="2346.28,1263.42 2819.04,990.86 3291.62,1263.42 2819.04,1536.04 "/>
  <polygon class="fil3" points="2819.05,990.87 3291.63,718.32 3764.04,991.05 3291.63,1263.43 "/>
  <polygon class="fil3" points="3291.61,1263.42 3764.02,991.07 4235.26,1263.24 4235.26,1264.55 3764.37,1536.04 "/>
  <line class="fil4 str0" x1="2348.26" y1="2355.24" x2="457.02" y2= "1263.99" />
  <line class="fil4 str0" x1="3289.27" y1="3441.22" x2="1401.31" y2= "2353.25" />
  <line class="fil4 str0" x1="3287.96" y1="3986.85" x2="1400.36" y2= "2898.25" />
  <line class="fil4 str0" x1="3290.6" y1="1809.62" x2="2345.61" y2= "1262.67" />
  <line class="fil4 str0" x1="1400.67" y1="1809.62" x2="3291.91" y2= "717.03" />
  <line class="fil4 str0" x1="2345.3" y1="2354.26" x2="4234.21" y2= "1265.3" />
  <line class="fil4 str0" x1="2346.95" y1="2898.23" x2="3291.9" y2= "2353.93" />
  <line class="fil4 str0" x1="1400.67" y1="3989.49" x2="3294.56" y2= "2898.24" />
  <line class="fil4 str0" x1="3291.91" y1="3443.85" x2="4235.55" y2= "2900.22" />
  <line class="fil4 str0" x1="457.68" y1="3442.87" x2="1401.33" y2= "2898.57" />
  <path class="fil5" d="M554.99 3387.83l1791.3 1034.35 1791.26 -1034.35 0 -2068.19 -1791.26 -1034.35 -1791.3 1034.35 0 2068.19zm1791.3 1259.95l-1986.67 -1147.13 0 -2293.83 1986.67 -1147.13 1986.63 1147.13 0 2293.83 -1986.63 1147.13z"/>
  <polygon class="fil5" points="2443.97,2326.44 2345.97,2382.56 2248.6,2326.75 2248.6,172.48 2443.97,172.48 "/>
  <polygon class="fil5" points="1499.56,3989.5 1304.2,3989.5 1304.2,1753.39 1499.56,1858.83 "/>
  <polygon class="fil5" points="3388.37,3989.5 3192.97,3989.5 3192.97,1858.83 3388.37,1749.86 "/>
 </g>
</svg>
