<?xml version="1.0" encoding="UTF-8"?>
<!DOCTYPE svg PUBLIC "-//W3C//DTD SVG 1.1//EN" "http://www.w3.org/Graphics/SVG/1.1/DTD/svg11.dtd">
<!-- Creator: CorelDRAW 2019 (64-Bit) -->
<svg xmlns="http://www.w3.org/2000/svg" xml:space="preserve" width="100mm" height="37.414mm" version="1.1" style="shape-rendering:geometricPrecision; text-rendering:geometricPrecision; image-rendering:optimizeQuality; fill-rule:evenodd; clip-rule:evenodd"
viewBox="0 0 10000 3741.4"
 xmlns:xlink="http://www.w3.org/1999/xlink"
 xmlns:xodm="http://www.corel.com/coreldraw/odm/2003">
 <defs>
  <style type="text/css">
   <![CDATA[
    .str0 {stroke:#2B2A29;stroke-width:29.32;stroke-miterlimit:10}
    .fil4 {fill:none;fill-rule:nonzero}
    .fil5 {fill:#2B2A29;fill-rule:nonzero}
    .fil2 {fill:#B0DFF8;fill-rule:nonzero}
    .fil3 {fill:#44C0F0;fill-rule:nonzero}
    .fil0 {fill:#00B6ED;fill-rule:nonzero}
    .fil1 {fill:#00A0E3;fill-rule:nonzero}
   ]]>
  </style>
 </defs>
 <g id="Слой_x0020_1">
  <metadata id="CorelCorpID_0Corel-Layer"/>
  <polygon class="fil0" points="2386.36,1870.64 2387.12,1871.12 2386.36,1871.55 "/>
  <polygon class="fil0" points="2386.36,2315.19 2387.12,2315.57 2386.36,2316.06 "/>
  <polygon class="fil0" points="845.52,2760.35 845.38,2760.21 845.52,2760.02 "/>
  <polygon class="fil0" points="845.52,2315.76 845.38,2315.56 845.52,2315.52 "/>
  <polygon class="fil0" points="2387.14,2760.19 2386.36,2760.68 2386.36,2759.77 "/>
  <polygon class="fil0" points="845.52,3204.86 845.38,3204.72 845.52,3204.72 "/>
  <polygon class="fil0" points="845.52,1426.7 845.38,1426.56 845.52,1426.46 "/>
  <polygon class="fil0" points="845.52,1871.17 845.38,1871.13 845.52,1870.94 "/>
  <polygon class="fil1" points="1230.72,1648.77 845.49,1426.71 845.49,1426.48 1230.72,1204.28 1616.23,1426.52 "/>
  <polygon class="fil1" points="1230.72,1204.28 1616.23,981.99 1616.23,1426.53 "/>
  <polygon class="fil1" points="1616.26,1426.53 2001.77,1648.79 1616.26,1871.12 "/>
  <polygon class="fil1" points="845.52,2315.52 845.52,1871.17 1230.75,2093.32 "/>
  <polygon class="fil1" points="1616.26,2315.57 1230.75,2537.87 845.52,2315.76 845.52,2315.52 1230.75,2093.32 "/>
  <polygon class="fil1" points="2001.79,2537.87 1616.27,2760.21 1230.72,2537.87 1616.27,2315.57 "/>
  <polygon class="fil1" points="2386.36,1871.77 2386.36,2315.4 2001.8,2093.54 "/>
  <polygon class="fil1" points="1616.26,537.48 2001.77,759.73 1616.26,981.97 "/>
  <polygon class="fil1" points="1616.26,92.38 1616.26,92.38 2001.91,315.09 1616.26,537.48 "/>
  <polygon class="fil1" points="1616.26,537.48 2001.91,315.09 2387.14,537.48 2001.77,759.73 "/>
  <polygon class="fil2" points="2386.36,1427.01 2387.12,1426.53 2772.64,1648.77 2387.12,1871.11 2386.36,1870.63 "/>
  <polygon class="fil2" points="1616.26,1426.53 1616.26,982 2001.77,1204.29 "/>
  <polygon class="fil2" points="2386.36,2759.75 2001.8,2537.88 2386.36,2316.07 "/>
  <polygon class="fil2" points="845.52,3204.72 845.52,2760.38 1230.75,2982.33 "/>
  <polygon class="fil2" points="845.52,1870.96 845.52,1426.7 1230.75,1648.76 "/>
  <polygon class="fil2" points="1616.26,1871.11 1230.75,2093.36 845.52,1871.16 845.52,1870.97 1230.75,1648.77 "/>
  <polygon class="fil2" points="1230.72,2537.87 1616.23,2760.21 1230.72,2982.36 845.49,2760.35 845.49,2760.02 "/>
  <polygon class="fil2" points="2386.36,1427.01 2386.36,1870.63 2001.8,1648.77 "/>
  <polygon class="fil2" points="1616.26,1871.11 2001.77,1648.77 2386.38,1870.63 2386.38,1871.54 2001.77,2093.36 "/>
  <polygon class="fil2" points="1616.26,2315.57 1230.75,2093.32 1616.26,1871.13 1616.26,1872.18 1616.26,1871.13 2001.77,2093.32 "/>
  <polygon class="fil2" points="75.86,2759.26 75.86,2316.54 459.84,2537.88 "/>
  <polygon class="fil2" points="845.52,2760.35 845.52,3204.69 845.38,3204.69 460.15,2982.17 845.38,2760.21 "/>
  <polygon class="fil2" points="2386.36,3204.2 2001.8,2982.35 2386.36,2760.68 "/>
  <polygon class="fil2" points="845.52,2315.52 845.38,2315.57 459.81,2093.32 845.38,1871.13 845.52,1871.17 "/>
  <polygon class="fil2" points="75.86,1870.16 75.86,1427.39 459.84,1648.77 "/>
  <polygon class="fil2" points="845.35,2315.57 459.84,2537.87 75.86,2316.52 75.86,2314.7 459.84,2093.32 "/>
  <polygon class="fil2" points="75.86,2314.73 75.86,1871.96 459.84,2093.35 "/>
  <polygon class="fil2" points="845.35,1871.11 459.84,2093.36 75.86,1871.98 75.86,1870.16 459.84,1648.77 "/>
  <polygon class="fil2" points="845.35,1426.53 459.84,1648.79 75.86,1427.4 75.86,1425.68 459.84,1204.29 "/>
  <polygon class="fil2" points="75.86,1425.68 75.86,982.91 459.84,1204.29 "/>
  <polygon class="fil2" points="845.52,1870.96 845.38,1871.09 459.81,1648.76 845.38,1426.56 845.52,1426.7 "/>
  <polygon class="fil2" points="3156.63,1427.4 3156.63,1870.17 2772.65,1648.79 "/>
  <polygon class="fil2" points="2386.36,1871.55 2387.12,1871.13 2772.64,2093.32 2387.12,2315.57 2386.36,2315.19 "/>
  <polygon class="fil2" points="2386.36,2316.06 2387.12,2315.59 2772.64,2537.88 2387.12,2760.21 2386.36,2759.74 "/>
  <polygon class="fil2" points="2386.36,2760.66 2387.12,2760.19 2772.35,2982.18 2387.12,3204.72 2386.36,3204.19 "/>
  <polygon class="fil2" points="2387.14,1871.11 2772.65,1648.77 3156.63,1870.16 3156.63,1871.98 2772.65,2093.36 "/>
  <polygon class="fil2" points="3156.63,1871.96 3156.63,2314.72 2772.65,2093.33 "/>
  <polygon class="fil2" points="2387.14,2315.57 2772.65,2093.32 3156.63,2314.7 3156.63,2316.52 2772.65,2537.87 "/>
  <polygon class="fil2" points="3156.63,982.9 3156.63,1425.66 2772.65,1204.28 "/>
  <polygon class="fil2" points="2387.14,1426.53 2772.65,1204.29 3156.63,1425.68 3156.63,1427.4 2772.65,1648.79 "/>
  <polygon class="fil3" points="845.52,2760.02 845.38,2760.17 459.81,2537.88 845.38,2315.59 845.52,2315.78 "/>
  <polygon class="fil3" points="2386.36,1426.14 2386.36,1427.01 2001.8,1648.77 1616.25,1426.52 2001.8,1204.28 2387.12,1426.52 2386.36,1427.01 "/>
  <polygon class="fil3" points="1230.72,1648.77 1616.23,1426.52 1616.23,1871.11 "/>
  <polygon class="fil3" points="845.52,2760.02 845.52,2315.78 1230.75,2537.88 "/>
  <polygon class="fil3" points="2001.79,2093.35 2386.35,2315.21 2386.35,2316.06 2001.79,2537.88 1616.27,2315.59 "/>
  <polygon class="fil3" points="2001.92,3427.18 1616.27,3649.81 1230.57,3426.99 1616.27,3204.69 "/>
  <polygon class="fil3" points="1230.72,2982.35 1616.23,3204.73 1230.58,3426.99 845.49,3204.88 845.49,3204.73 "/>
  <polygon class="fil3" points="845.35,2760.19 460.13,2982.2 75.86,2760.34 75.86,2759.24 459.84,2537.85 "/>
  <polygon class="fil3" points="2001.79,2537.87 2386.35,2759.73 2386.35,2760.65 2001.79,2982.36 1616.27,2760.21 "/>
  <polygon class="fil3" points="2001.79,2982.35 1616.27,3204.73 1230.72,2982.35 1616.27,2760.2 "/>
  <polygon class="fil3" points="2001.79,2982.35 2386.35,3204.2 2386.35,3204.98 2386.35,3204.2 2387.11,3204.73 2001.94,3427.18 1616.27,3204.73 "/>
  <polygon class="fil3" points="459.83,1204.28 75.85,982.9 75.85,981.8 460.17,759.9 845.34,981.99 "/>
  <polygon class="fil3" points="1230.72,759.73 845.35,981.97 460.18,759.88 845.35,537.59 "/>
  <polygon class="fil3" points="1230.72,1204.28 845.35,981.99 1230.72,759.75 1616.23,981.99 "/>
  <polygon class="fil3" points="1616.26,981.99 1230.75,759.75 1616.26,537.49 "/>
  <polygon class="fil3" points="1230.72,759.73 845.35,537.59 1230.58,315.1 1616.23,537.49 "/>
  <polygon class="fil3" points="1230.58,315.09 1616.25,92.36 1616.25,537.48 "/>
  <polygon class="fil3" points="845.52,1426.46 845.52,1425.61 845.52,1426.46 845.38,1426.52 459.81,1204.27 845.38,981.97 1230.75,1204.27 "/>
  <polygon class="fil3" points="2772.66,2537.87 3156.64,2759.25 3156.64,2760.35 2772.38,2982.17 2387.15,2760.21 "/>
  <polygon class="fil3" points="3156.63,2316.52 3156.63,2759.24 2772.65,2537.87 "/>
  <polygon class="fil3" points="2387.14,981.99 2772.65,1204.28 2387.14,1426.52 2001.81,1204.28 "/>
  <polygon class="fil3" points="1616.26,981.99 2001.77,759.75 2387.14,981.99 2001.77,1204.28 "/>
  <polygon class="fil3" points="2001.79,759.73 2387.11,537.49 2772.34,759.88 2387.11,981.97 "/>
  <polygon class="fil3" points="2387.14,981.99 2772.35,759.88 3156.63,981.85 3156.63,982.9 2772.65,1204.28 "/>
  <line class="fil4 str0" x1="1617.88" y1="1872.3" x2="75.67" y2= "982.42" />
  <line class="fil4 str0" x1="2385.21" y1="2757.88" x2="845.69" y2= "1870.67" />
  <line class="fil4 str0" x1="2384.16" y1="3202.81" x2="844.88" y2= "2315.12" />
  <line class="fil4 str0" x1="2386.31" y1="1427.39" x2="1615.72" y2= "981.36" />
  <line class="fil4 str0" x1="845.15" y1="1427.39" x2="2387.34" y2= "536.43" />
  <line class="fil4 str0" x1="1615.46" y1="1871.51" x2="3155.79" y2= "983.53" />
  <line class="fil4 str0" x1="1616.79" y1="2315.11" x2="2387.34" y2= "1871.24" />
  <line class="fil4 str0" x1="845.15" y1="3205.01" x2="2389.5" y2= "2315.11" />
  <line class="fil4 str0" x1="2387.37" y1="2760.02" x2="3156.92" y2= "2316.74" />
  <line class="fil4 str0" x1="76.19" y1="2759.24" x2="845.68" y2= "2315.37" />
  <path class="fil5" d="M155.54 2714.34l1460.71 843.52 1460.71 -843.52 0 -1686.55 -1460.71 -843.46 -1460.71 843.46 0 1686.55zm1460.71 1027.49l-1620.05 -935.5 0 -1870.52 1620.05 -935.4 1620.04 935.4 0 1870.52 -1620.04 935.5z"/>
  <polygon class="fil5" points="1695.91,1848.82 1616,1894.61 1536.61,1849.11 1536.61,92.38 1695.91,92.38 "/>
  <polygon class="fil5" points="925.78,3205.01 766.48,3205.01 766.48,1381.53 925.78,1467.48 "/>
  <polygon class="fil5" points="2466.04,3205.01 2306.69,3205.01 2306.69,1467.48 2466.04,1378.66 "/>
  <polygon class="fil5" points="5001.05,1218.8 5121.11,1218.8 5121.11,2534.58 4778.09,2534.58 4778.09,1881.69 4498.65,2106.1 4461.32,2106.1 4183.79,1881.69 4183.79,2534.58 3840.92,2534.58 3840.92,1218.8 3964.57,1218.8 4478.09,1652.4 "/>
  <polygon class="fil5" points="5368.99,2536.47 5249.13,2536.47 5249.13,1222.6 5592.19,1222.6 5592.19,1865.42 6255.77,1216.94 6377.55,1216.94 6377.55,2534.59 6030.7,2534.59 6030.7,1889.81 "/>
  <path class="fil5" d="M6825.15 2013.55l0 223.11 268 0c134.81,0 132.94,-223.11 -1.87,-223.11l-266.13 0zm0 -491.06l0 211.76 211.81 0c132.89,0 132.89,-211.76 -1.93,-211.76l-209.88 0zm541.55 329.89c106.83,54.33 157.47,151.83 157.47,268.1 -1.87,228.57 -140.66,414.11 -408.65,414.11l-614.8 0 0 -1312 560.48 0c226.69,0 408.6,176.16 408.6,402.95 0,78.72 -39.42,174.39 -103.1,226.84z"/>
  <path class="fil5" d="M8183.3 1737.94l-147.89 344.99 299.76 0 -151.87 -344.99zm260.56 631.61l-517.1 0 -76.99 165.04 -349.44 -0.19 611.83 -1328.72 144.34 0 592.28 1280.15 0 48.76 -327.97 0 -76.95 -165.04z"/>
  <path class="fil5" d="M9523.27 1522.46c-78.62,-1.91 -163.03,0 -239.78,0l0 374.84 239.78 0c183.77,0 194.98,-372.96 0,-374.84zm-575.13 1012.11l0 -1311.96 576.99 0c628.08,1.88 628.08,976.46 0,976.46l-241.64 0 0 335.5 -335.35 0z"/>
 </g>
</svg>
