<?xml version="1.0" encoding="UTF-8"?>
<!DOCTYPE svg PUBLIC "-//W3C//DTD SVG 1.1//EN" "http://www.w3.org/Graphics/SVG/1.1/DTD/svg11.dtd">
<!-- Creator: CorelDRAW 2019 (64-Bit) -->
<svg xmlns="http://www.w3.org/2000/svg" xml:space="preserve" width="100mm" height="39.658mm" version="1.1" style="shape-rendering:geometricPrecision; text-rendering:geometricPrecision; image-rendering:optimizeQuality; fill-rule:evenodd; clip-rule:evenodd"
viewBox="0 0 10000 3965.8"
 xmlns:xlink="http://www.w3.org/1999/xlink"
 xmlns:xodm="http://www.corel.com/coreldraw/odm/2003">
 <defs>
  <style type="text/css">
   <![CDATA[
    .str0 {stroke:#2B2A29;stroke-width:29.32;stroke-miterlimit:10}
    .fil4 {fill:none;fill-rule:nonzero}
    .fil5 {fill:#2B2A29;fill-rule:nonzero}
    .fil2 {fill:#B0DFF8;fill-rule:nonzero}
    .fil3 {fill:#44C0F0;fill-rule:nonzero}
    .fil0 {fill:#00B6ED;fill-rule:nonzero}
    .fil1 {fill:#00A0E3;fill-rule:nonzero}
   ]]>
  </style>
 </defs>
 <g id="Слой_x0020_1">
  <metadata id="CorelCorpID_0Corel-Layer"/>
  <polygon class="fil0" points="2529.71,1989.15 2530.57,1989.65 2529.71,1990.11 "/>
  <polygon class="fil0" points="2529.71,2460.36 2530.57,2460.76 2529.71,2461.28 "/>
  <polygon class="fil0" points="896.46,2932.22 896.26,2932.07 896.46,2931.87 "/>
  <polygon class="fil0" points="896.46,2460.96 896.26,2460.75 896.46,2460.7 "/>
  <polygon class="fil0" points="2530.56,2932.05 2529.69,2932.56 2529.69,2931.6 "/>
  <polygon class="fil0" points="896.46,3403.39 896.26,3403.24 896.46,3403.24 "/>
  <polygon class="fil0" points="896.46,1518.57 896.26,1518.42 896.46,1518.32 "/>
  <polygon class="fil0" points="896.46,1989.71 896.26,1989.66 896.46,1989.46 "/>
  <polygon class="fil1" points="1304.8,1753.96 896.46,1518.58 896.46,1518.34 1304.8,1282.81 1713.44,1518.38 "/>
  <polygon class="fil1" points="1304.8,1282.81 1713.44,1047.18 1713.44,1518.39 "/>
  <polygon class="fil1" points="1713.44,1518.39 2122.08,1753.98 1713.44,1989.65 "/>
  <polygon class="fil1" points="896.46,2460.7 896.46,1989.71 1304.8,2225.18 "/>
  <polygon class="fil1" points="1713.44,2460.76 1304.8,2696.39 896.46,2460.96 896.46,2460.7 1304.8,2225.18 "/>
  <polygon class="fil1" points="2122.06,2696.39 1713.42,2932.07 1304.78,2696.39 1713.42,2460.76 "/>
  <polygon class="fil1" points="2529.71,1990.34 2529.71,2460.57 2122.09,2225.41 "/>
  <polygon class="fil1" points="1713.44,576.01 2122.08,811.6 1713.44,1047.17 "/>
  <polygon class="fil1" points="1713.44,104.21 1713.44,104.21 2122.28,340.28 1713.44,576.01 "/>
  <polygon class="fil1" points="1713.44,576.01 2122.28,340.28 2530.56,576.01 2122.08,811.6 "/>
  <polygon class="fil2" points="2529.71,1518.9 2530.57,1518.39 2939.21,1753.96 2530.57,1989.64 2529.71,1989.13 "/>
  <polygon class="fil2" points="1713.44,1518.39 1713.44,1047.2 2122.08,1282.82 "/>
  <polygon class="fil2" points="2529.71,2931.58 2122.09,2696.4 2529.71,2461.29 "/>
  <polygon class="fil2" points="896.46,3403.24 896.46,2932.25 1304.8,3167.51 "/>
  <polygon class="fil2" points="896.46,1989.48 896.46,1518.57 1304.8,1753.95 "/>
  <polygon class="fil2" points="1713.44,1989.64 1304.8,2225.22 896.46,1989.69 896.46,1989.49 1304.8,1753.96 "/>
  <polygon class="fil2" points="1304.8,2696.39 1713.44,2932.07 1304.8,3167.54 896.46,2932.22 896.46,2931.87 "/>
  <polygon class="fil2" points="2529.71,1518.9 2529.71,1989.13 2122.09,1753.96 "/>
  <polygon class="fil2" points="1713.44,1989.64 2122.08,1753.96 2529.69,1989.13 2529.69,1990.1 2122.08,2225.22 "/>
  <polygon class="fil2" points="1713.44,2460.76 1304.8,2225.18 1713.44,1989.66 1713.44,1990.77 1713.44,1989.66 2122.08,2225.18 "/>
  <polygon class="fil2" points="80.64,2931.07 80.64,2461.78 487.65,2696.4 "/>
  <polygon class="fil2" points="896.46,2932.22 896.46,3403.21 896.26,3403.21 487.98,3167.34 896.26,2932.07 "/>
  <polygon class="fil2" points="2529.71,3402.7 2122.09,3167.53 2529.71,2932.56 "/>
  <polygon class="fil2" points="896.46,2460.7 896.26,2460.76 487.62,2225.18 896.26,1989.66 896.46,1989.71 "/>
  <polygon class="fil2" points="80.64,1988.63 80.64,1519.3 487.65,1753.96 "/>
  <polygon class="fil2" points="896.28,2460.76 487.64,2696.39 80.63,2461.77 80.63,2459.84 487.64,2225.18 "/>
  <polygon class="fil2" points="80.64,2459.87 80.64,1990.54 487.65,2225.21 "/>
  <polygon class="fil2" points="896.28,1989.64 487.64,2225.22 80.63,1990.56 80.63,1988.63 487.64,1753.96 "/>
  <polygon class="fil2" points="896.28,1518.39 487.64,1753.98 80.63,1519.32 80.63,1517.49 487.64,1282.82 "/>
  <polygon class="fil2" points="80.64,1517.49 80.64,1048.16 487.65,1282.82 "/>
  <polygon class="fil2" points="896.46,1989.48 896.26,1989.62 487.62,1753.95 896.26,1518.42 896.46,1518.57 "/>
  <polygon class="fil2" points="3346.18,1519.32 3346.18,1988.64 2939.22,1753.98 "/>
  <polygon class="fil2" points="2529.71,1990.11 2530.57,1989.66 2939.21,2225.18 2530.57,2460.76 2529.71,2460.36 "/>
  <polygon class="fil2" points="2529.71,2461.28 2530.57,2460.78 2939.21,2696.4 2530.57,2932.07 2529.71,2931.57 "/>
  <polygon class="fil2" points="2529.71,2932.55 2530.57,2932.05 2938.91,3167.36 2530.57,3403.24 2529.71,3402.68 "/>
  <polygon class="fil2" points="2530.56,1989.64 2939.24,1753.96 3346.21,1988.63 3346.21,1990.56 2939.24,2225.22 "/>
  <polygon class="fil2" points="3346.18,1990.54 3346.18,2459.85 2939.22,2225.19 "/>
  <polygon class="fil2" points="2530.56,2460.76 2939.24,2225.18 3346.21,2459.84 3346.21,2461.77 2939.24,2696.39 "/>
  <polygon class="fil2" points="3346.18,1048.15 3346.18,1517.47 2939.22,1282.81 "/>
  <polygon class="fil2" points="2530.56,1518.39 2939.24,1282.82 3346.21,1517.49 3346.21,1519.32 2939.24,1753.98 "/>
  <polygon class="fil3" points="896.46,2931.87 896.26,2932.03 487.62,2696.4 896.26,2460.78 896.46,2460.98 "/>
  <polygon class="fil3" points="2529.71,1517.98 2529.71,1518.9 2122.09,1753.96 1713.45,1518.38 2122.09,1282.81 2530.57,1518.38 2529.71,1518.9 "/>
  <polygon class="fil3" points="1304.8,1753.96 1713.44,1518.38 1713.44,1989.64 "/>
  <polygon class="fil3" points="896.46,2931.87 896.46,2460.98 1304.8,2696.4 "/>
  <polygon class="fil3" points="2122.06,2225.21 2529.69,2460.37 2529.69,2461.28 2122.06,2696.4 1713.42,2460.78 "/>
  <polygon class="fil3" points="2122.26,3639.04 1713.42,3875.03 1304.58,3638.84 1713.42,3403.21 "/>
  <polygon class="fil3" points="1304.8,3167.53 1713.44,3403.26 1304.6,3638.84 896.46,3403.42 896.46,3403.26 "/>
  <polygon class="fil3" points="896.28,2932.05 487.98,3167.37 80.63,2932.2 80.63,2931.04 487.64,2696.37 "/>
  <polygon class="fil3" points="2122.06,2696.39 2529.69,2931.56 2529.69,2932.53 2122.06,3167.54 1713.42,2932.07 "/>
  <polygon class="fil3" points="2122.06,3167.53 1713.42,3403.26 1304.78,3167.53 1713.42,2932.06 "/>
  <polygon class="fil3" points="2122.06,3167.53 2529.69,3402.7 2529.69,3403.52 2529.69,3402.7 2530.56,3403.26 2122.26,3639.04 1713.42,3403.26 "/>
  <polygon class="fil3" points="487.64,1282.81 80.63,1048.15 80.63,1046.98 488,811.77 896.28,1047.18 "/>
  <polygon class="fil3" points="1304.8,811.6 896.26,1047.17 487.98,811.76 896.26,576.13 "/>
  <polygon class="fil3" points="1304.8,1282.81 896.26,1047.18 1304.8,811.61 1713.44,1047.18 "/>
  <polygon class="fil3" points="1713.44,1047.18 1304.8,811.61 1713.44,576.03 "/>
  <polygon class="fil3" points="1304.8,811.6 896.26,576.13 1304.6,340.3 1713.44,576.03 "/>
  <polygon class="fil3" points="1304.61,340.28 1713.45,104.2 1713.45,576.01 "/>
  <polygon class="fil3" points="896.46,1518.32 896.46,1517.42 896.46,1518.32 896.26,1518.38 487.62,1282.8 896.26,1047.17 1304.8,1282.8 "/>
  <polygon class="fil3" points="2939.24,2696.39 3346.19,2931.05 3346.19,2932.22 2938.88,3167.34 2530.54,2932.07 "/>
  <polygon class="fil3" points="3346.18,2461.77 3346.18,2931.04 2939.22,2696.39 "/>
  <polygon class="fil3" points="2530.56,1047.18 2939.24,1282.81 2530.56,1518.38 2122.06,1282.81 "/>
  <polygon class="fil3" points="1713.44,1047.18 2122.08,811.61 2530.56,1047.18 2122.08,1282.81 "/>
  <polygon class="fil3" points="2122.06,811.6 2530.56,576.03 2938.89,811.76 2530.56,1047.17 "/>
  <polygon class="fil3" points="2530.56,1047.18 2938.89,811.76 3346.21,1047.04 3346.21,1048.15 2939.24,1282.81 "/>
  <line class="fil4 str0" x1="1715.12" y1="1990.9" x2="80.41" y2= "1047.64" />
  <line class="fil4 str0" x1="2528.51" y1="2929.6" x2="896.65" y2= "1989.17" />
  <line class="fil4 str0" x1="2527.42" y1="3401.21" x2="895.76" y2= "2460.29" />
  <line class="fil4 str0" x1="2529.71" y1="1519.3" x2="1712.83" y2= "1046.52" />
  <line class="fil4 str0" x1="896.07" y1="1519.3" x2="2530.77" y2= "574.91" />
  <line class="fil4 str0" x1="1712.59" y1="1990.07" x2="3345.27" y2= "1048.82" />
  <line class="fil4 str0" x1="1714.03" y1="2460.27" x2="2530.8" y2= "1989.78" />
  <line class="fil4 str0" x1="896.07" y1="3403.55" x2="2533.06" y2= "2460.27" />
  <line class="fil4 str0" x1="2530.8" y1="2931.87" x2="3346.51" y2= "2462" />
  <line class="fil4 str0" x1="80.99" y1="2931.04" x2="896.69" y2= "2460.55" />
  <path class="fil5" d="M165.09 2883.45l1548.33 894.11 1548.33 -894.11 0 -1787.71 -1548.33 -894.06 -1548.33 894.06 0 1787.71zm1548.33 1089.12l-1717.22 -991.61 0 -1982.72 1717.22 -991.51 1717.23 991.51 0 1982.72 -1717.23 991.61z"/>
  <polygon class="fil5" points="1797.85,1966.01 1713.14,2014.55 1629.04,1966.32 1629.04,104.21 1797.85,104.21 "/>
  <polygon class="fil5" points="981.56,3403.55 812.67,3403.55 812.67,1470.69 981.56,1561.79 "/>
  <polygon class="fil5" points="2614.2,3403.55 2445.31,3403.55 2445.31,1561.79 2614.2,1467.65 "/>
  <path class="fil5" d="M8028.25 1849.69l-156.96 365.99 318.09 0 -161.13 -365.99zm276.41 670.12l-548.55 0 -81.71 175.1 -370.8 -0.21 649.13 -1409.7 153.16 0 628.32 1358.16 0 51.75 -347.95 0 -81.6 -175.1z"/>
  <polygon class="fil5" points="5314.06,1288.4 5442.33,1288.4 5442.33,2692.4 5076.1,2692.4 5076.1,1995.94 4778.01,2235.17 4738.09,2235.17 4441.99,1995.94 4441.99,2692.4 4076.17,2692.4 4076.17,1288.4 4207.99,1288.4 4756.07,1751.17 "/>
  <polygon class="fil5" points="6234.39,2376.72 6234.39,2692.39 5571.98,2692.39 5571.98,2376.72 5725.04,2376.72 5725.04,1598.2 5578.43,1598.2 5578.43,1284.31 6227.94,1284.31 6227.94,1598.2 6081.23,1598.2 6081.23,2376.72 "/>
  <polygon class="fil5" points="7036.62,1999.11 7047.23,1999.11 7388.69,1284.47 7755.42,1284.47 7755.42,1338.14 7121.88,2692.39 6959.78,2692.39 6319.93,1338.14 6319.93,1284.47 6686.73,1284.47 "/>
  <path class="fil5" d="M9426.22 1612.49c-83.93,-1.97 -172.04,0 -255.98,0l0 350 255.98 0c194.05,0 204.05,-348.01 0,-350zm569.98 1027.98l0 51.95 -399.9 0 -240.05 -411.94 -186.01 0 0 411.94 -357.97 0 0 -1399.95 613.95 0c550.03,1.99 650.01,664.03 296.06,904.02l273.92 443.98z"/>
 </g>
</svg>
